# This file uses centimeters as units for non-parametric coordinates.

mtllib button.mtl
g default
v 0.004823 0.003408 0.018701
v 0.004324 0.003351 0.017498
v 0.003531 0.003302 0.016465
v 0.002497 0.003264 0.015672
v 0.001292 0.003241 0.015174
v 0.000000 0.003233 0.015004
v -0.001292 0.003241 0.015174
v -0.002497 0.003264 0.015672
v -0.003531 0.003302 0.016465
v -0.004324 0.003351 0.017498
v -0.004823 0.003408 0.018701
v -0.004993 0.003469 0.019992
v -0.004823 0.003530 0.021283
v -0.004324 0.003587 0.022485
v -0.003531 0.003636 0.023518
v -0.002497 0.003674 0.024311
v -0.001292 0.003697 0.024809
v -0.000000 0.003705 0.024979
v 0.001292 0.003697 0.024809
v 0.002497 0.003674 0.024311
v 0.003531 0.003636 0.023518
v 0.004324 0.003587 0.022485
v 0.004823 0.003530 0.021283
v 0.004993 0.003469 0.019992
v 0.002411 0.007580 0.019150
v 0.002162 0.007552 0.018549
v 0.001765 0.007527 0.018032
v 0.001248 0.007509 0.017636
v 0.000646 0.007497 0.017387
v 0.000000 0.007493 0.017302
v -0.000646 0.007497 0.017387
v -0.001248 0.007509 0.017636
v -0.001765 0.007527 0.018032
v -0.002162 0.007552 0.018549
v -0.002412 0.007580 0.019150
v -0.002497 0.007611 0.019795
v -0.002412 0.007642 0.020441
v -0.002162 0.007670 0.021042
v -0.001765 0.007695 0.021559
v -0.001248 0.007713 0.021955
v -0.000646 0.007725 0.022204
v -0.000000 0.007729 0.022289
v 0.000646 0.007725 0.022204
v 0.001248 0.007713 0.021955
v 0.001765 0.007695 0.021559
v 0.002162 0.007670 0.021042
v 0.002412 0.007642 0.020441
v 0.002497 0.007611 0.019795
v -0.000000 0.007696 0.019791
v 0.003910 0.007457 0.018754
v 0.004366 0.007325 0.018638
v 0.004701 0.006975 0.018565
v 0.004823 0.006501 0.018554
v 0.003505 0.007411 0.017779
v 0.003915 0.007273 0.017549
v 0.004214 0.006919 0.017392
v 0.004324 0.006444 0.017351
v 0.002862 0.007371 0.016942
v 0.003196 0.007229 0.016614
v 0.003441 0.006871 0.016386
v 0.003531 0.006395 0.016318
v 0.002024 0.007341 0.016299
v 0.002260 0.007195 0.015896
v 0.002433 0.006835 0.015613
v 0.002497 0.006357 0.015526
v 0.001048 0.007322 0.015895
v 0.001170 0.007173 0.015445
v 0.001260 0.006812 0.015127
v 0.001292 0.006334 0.015028
v 0.000000 0.007315 0.015757
v 0.000000 0.007166 0.015291
v 0.000000 0.006804 0.014962
v 0.000000 0.006326 0.014858
v -0.001048 0.007322 0.015895
v -0.001170 0.007173 0.015445
v -0.001260 0.006812 0.015127
v -0.001292 0.006334 0.015028
v -0.002024 0.007341 0.016299
v -0.002260 0.007195 0.015896
v -0.002433 0.006835 0.015613
v -0.002497 0.006357 0.015526
v -0.002862 0.007371 0.016942
v -0.003196 0.007229 0.016614
v -0.003441 0.006871 0.016386
v -0.003531 0.006395 0.016318
v -0.003505 0.007411 0.017779
v -0.003915 0.007273 0.017549
v -0.004214 0.006919 0.017392
v -0.004324 0.006444 0.017351
v -0.003910 0.007457 0.018754
v -0.004366 0.007325 0.018638
v -0.004701 0.006975 0.018565
v -0.004823 0.006501 0.018554
v -0.004048 0.007507 0.019800
v -0.004520 0.007380 0.019806
v -0.004866 0.007034 0.019823
v -0.004993 0.006562 0.019845
v -0.003910 0.007556 0.020847
v -0.004366 0.007435 0.020975
v -0.004701 0.007094 0.021081
v -0.004823 0.006623 0.021136
v -0.003505 0.007602 0.021822
v -0.003915 0.007487 0.022064
v -0.004214 0.007149 0.022253
v -0.004324 0.006680 0.022339
v -0.002862 0.007642 0.022659
v -0.003196 0.007531 0.022999
v -0.003441 0.007197 0.023260
v -0.003531 0.006729 0.023372
v -0.002024 0.007673 0.023302
v -0.002260 0.007565 0.023717
v -0.002433 0.007234 0.024033
v -0.002497 0.006767 0.024165
v -0.001048 0.007692 0.023706
v -0.001170 0.007587 0.024168
v -0.001260 0.007257 0.024518
v -0.001292 0.006790 0.024663
v -0.000000 0.007698 0.023843
v -0.000000 0.007594 0.024322
v -0.000000 0.007265 0.024684
v -0.000000 0.006798 0.024833
v 0.001048 0.007692 0.023706
v 0.001170 0.007587 0.024168
v 0.001260 0.007257 0.024518
v 0.001292 0.006790 0.024663
v 0.002024 0.007673 0.023302
v 0.002260 0.007565 0.023717
v 0.002433 0.007234 0.024033
v 0.002497 0.006767 0.024165
v 0.002862 0.007642 0.022659
v 0.003196 0.007531 0.022999
v 0.003441 0.007197 0.023260
v 0.003531 0.006729 0.023372
v 0.003505 0.007602 0.021822
v 0.003915 0.007487 0.022064
v 0.004214 0.007149 0.022253
v 0.004324 0.006680 0.022339
v 0.003910 0.007556 0.020847
v 0.004366 0.007435 0.020975
v 0.004701 0.007094 0.021081
v 0.004823 0.006623 0.021136
v 0.004048 0.007507 0.019800
v 0.004520 0.007380 0.019806
v 0.004866 0.007034 0.019823
v 0.004993 0.006562 0.019845
vt 0.415559 0.755145
vt 0.460477 0.766741
vt 0.433711 0.759517
vt 0.375823 0.743988
vt 0.455871 0.777995
vt 0.455270 0.765273
vt 0.432000 0.764019
vt 0.448517 0.787549
vt 0.428913 0.767992
vt 0.438854 0.794868
vt 0.425076 0.770912
vt 0.427526 0.799580
vt 0.420423 0.772906
vt 0.415552 0.801196
vt 0.415557 0.773431
vt 0.403598 0.799570
vt 0.410692 0.772905
vt 0.392263 0.794857
vt 0.406039 0.770910
vt 0.382587 0.787532
vt 0.402204 0.767992
vt 0.375252 0.777999
vt 0.399117 0.764019
vt 0.370643 0.766737
vt 0.397407 0.759518
vt 0.369054 0.754647
vt 0.396661 0.754628
vt 0.370604 0.742591
vt 0.397305 0.749738
vt 0.375234 0.731374
vt 0.399193 0.745181
vt 0.382636 0.721735
vt 0.402199 0.741269
vt 0.392292 0.714331
vt 0.406113 0.738266
vt 0.403510 0.709676
vt 0.410672 0.736378
vt 0.415560 0.708084
vt 0.415562 0.735732
vt 0.427609 0.709677
vt 0.420453 0.736376
vt 0.438831 0.714328
vt 0.425011 0.738263
vt 0.448493 0.721732
vt 0.428924 0.741266
vt 0.455882 0.731369
vt 0.431926 0.745178
vt 0.460502 0.742585
vt 0.433812 0.749736
vt 0.462060 0.754664
vt 0.434456 0.754626
vt 0.452981 0.754638
vt 0.451705 0.764306
vt 0.448202 0.763390
vt 0.449378 0.754649
vt 0.444743 0.762466
vt 0.451146 0.775208
vt 0.447928 0.773343
vt 0.444805 0.771521
vt 0.415553 0.795765
vt 0.441779 0.769727
vt 0.379927 0.734068
vt 0.441921 0.781101
vt 0.439539 0.778520
vt 0.437006 0.775981
vt 0.456693 0.754628
vt 0.434307 0.787016
vt 0.432474 0.783946
vt 0.444610 0.783733
vt 0.430574 0.780831
vt 0.386468 0.725548
vt 0.425310 0.790763
vt 0.424167 0.787293
vt 0.404821 0.794308
vt 0.423286 0.783822
vt 0.394989 0.719009
vt 0.415553 0.792030
vt 0.415555 0.788406
vt 0.436083 0.790230
vt 0.415557 0.784848
vt 0.374425 0.754627
vt 0.405800 0.790761
vt 0.406941 0.787291
vt 0.445776 0.754655
vt 0.407823 0.783819
vt 0.444761 0.746839
vt 0.396811 0.787013
vt 0.398640 0.783945
vt 0.395036 0.790227
vt 0.400537 0.780830
vt 0.448222 0.745911
vt 0.389197 0.781099
vt 0.391581 0.778522
vt 0.394113 0.775984
vt 0.451717 0.744961
vt 0.383191 0.773342
vt 0.386314 0.771519
vt 0.455297 0.743988
vt 0.389340 0.769726
vt 0.441740 0.739544
vt 0.379414 0.764306
vt 0.382918 0.763391
vt 0.451195 0.734072
vt 0.386376 0.762468
vt 0.404908 0.714900
vt 0.378138 0.754640
vt 0.381742 0.754654
vt 0.386506 0.783728
vt 0.385345 0.754659
vt 0.444847 0.737752
vt 0.379404 0.744961
vt 0.382898 0.745908
vt 0.386358 0.746836
vt 0.447977 0.735938
vt 0.383146 0.735933
vt 0.386276 0.737749
vt 0.444654 0.725549
vt 0.389380 0.739545
vt 0.436940 0.733283
vt 0.389095 0.728182
vt 0.391650 0.730747
vt 0.394184 0.733285
vt 0.415561 0.713497
vt 0.396844 0.722235
vt 0.398650 0.725377
vt 0.426292 0.794310
vt 0.400444 0.728484
vt 0.439473 0.730747
vt 0.405869 0.718497
vt 0.406807 0.721998
vt 0.379972 0.775208
vt 0.407738 0.725462
vt 0.442026 0.728183
vt 0.415560 0.717221
vt 0.415562 0.720844
vt 0.436131 0.719008
vt 0.415561 0.724430
vt 0.430679 0.728484
vt 0.425252 0.718496
vt 0.424314 0.721997
vt 0.426213 0.714900
vt 0.423384 0.725461
vt 0.375849 0.765272
vt 0.434276 0.722233
vt 0.432471 0.725376
vn 0.965927 -0.012249 -0.258524
vn 0.866030 -0.023665 -0.499432
vn 0.865517 0.010740 -0.500764
vn 0.965355 0.022149 -0.259999
vn 0.707099 -0.033465 -0.706322
vn 0.706682 0.000943 -0.707531
vn 0.500003 -0.040982 -0.865053
vn 0.499707 -0.006572 -0.866170
vn 0.258824 -0.045710 -0.964842
vn 0.258669 -0.011295 -0.965900
vn 0.000000 -0.047323 -0.998880
vn 0.000000 -0.012909 -0.999917
vn -0.258824 -0.045710 -0.964842
vn -0.258669 -0.011295 -0.965900
vn -0.500003 -0.040982 -0.865053
vn -0.499707 -0.006572 -0.866170
vn -0.707099 -0.033465 -0.706322
vn -0.706682 0.000943 -0.707531
vn -0.866020 -0.023666 -0.499449
vn -0.865508 0.010743 -0.500780
vn -0.965927 -0.012249 -0.258524
vn -0.965355 0.022157 -0.259999
vn -1.000000 -0.000000 0.000001
vn -0.999407 0.034399 -0.001630
vn -0.965927 0.012249 0.258525
vn -0.965354 0.046639 0.256742
vn -0.866020 0.023666 0.499450
vn -0.865508 0.058045 0.497521
vn -0.707104 0.033465 0.706317
vn -0.706687 0.067834 0.704267
vn -0.500004 0.040982 0.865053
vn -0.499707 0.075346 0.862911
vn -0.258809 0.045714 0.964846
vn -0.258657 0.080071 0.962645
vn 0.000000 0.047331 0.998879
vn 0.000000 0.081686 0.996658
vn 0.258809 0.045714 0.964846
vn 0.258657 0.080071 0.962645
vn 0.500004 0.040982 0.865053
vn 0.499707 0.075346 0.862911
vn 0.707104 0.033465 0.706317
vn 0.706687 0.067834 0.704267
vn 0.866020 0.023666 0.499450
vn 0.865508 0.058045 0.497521
vn 0.965927 0.012249 0.258525
vn 0.965354 0.046639 0.256742
vn 1.000000 -0.000001 -0.000022
vn 0.999407 0.034394 -0.001651
vn 0.125966 0.988751 -0.080647
vn 0.112930 0.987263 -0.112065
vn 0.048357 0.995996 -0.075184
vn 0.053957 0.996634 -0.061722
vn 0.092203 0.985987 -0.139024
vn 0.039480 0.995452 -0.086704
vn 0.065196 0.985008 -0.159715
vn 0.027922 0.995032 -0.095557
vn 0.033760 0.984389 -0.172738
vn 0.014490 0.994767 -0.101132
vn 0.000000 0.984177 -0.177187
vn 0.000000 0.994677 -0.103039
vn -0.033760 0.984389 -0.172738
vn -0.014490 0.994767 -0.101133
vn -0.065197 0.985008 -0.159715
vn -0.027923 0.995032 -0.095557
vn -0.092203 0.985987 -0.139024
vn -0.039480 0.995451 -0.086705
vn -0.112930 0.987263 -0.112066
vn -0.048357 0.995996 -0.075185
vn -0.125966 0.988751 -0.080648
vn -0.053957 0.996634 -0.061723
vn -0.130422 0.990348 -0.046919
vn -0.055876 0.997319 -0.047248
vn -0.125969 0.991947 -0.013197
vn -0.053959 0.998005 -0.032785
vn -0.112948 0.993434 0.018211
vn -0.048381 0.998642 -0.019348
vn -0.092234 0.994711 0.045190
vn -0.039509 0.999189 -0.007818
vn -0.065198 0.995693 0.065912
vn -0.027917 0.999610 0.001075
vn -0.033755 0.996309 0.078925
vn -0.014467 0.999873 0.006658
vn -0.000000 0.996520 0.083354
vn 0.000000 0.999963 0.008557
vn 0.033755 0.996309 0.078924
vn 0.014467 0.999873 0.006658
vn 0.065198 0.995693 0.065911
vn 0.027917 0.999610 0.001074
vn 0.092234 0.994711 0.045189
vn 0.039509 0.999189 -0.007818
vn 0.112947 0.993434 0.018211
vn 0.048381 0.998642 -0.019349
vn 0.125966 0.991947 -0.013198
vn 0.053959 0.998005 -0.032785
vn 0.130420 0.990348 -0.046921
vn 0.055876 0.997319 -0.047248
vn 0.000000 0.998879 -0.047338
vn 0.844855 0.473482 -0.249068
vn 0.874664 0.484186 -0.022948
vn 0.508646 0.842717 -0.176374
vn 0.526595 0.849164 -0.040236
vn 0.456053 0.836695 -0.303243
vn 0.757477 0.463509 -0.459770
vn 0.372371 0.831536 -0.412174
vn 0.618473 0.454927 -0.640729
vn 0.263301 0.827582 -0.495763
vn 0.437331 0.448337 -0.779574
vn 0.136288 0.825092 -0.548315
vn 0.226385 0.444204 -0.866852
vn -0.000000 0.824252 -0.566224
vn -0.000000 0.442807 -0.896617
vn -0.136288 0.825092 -0.548315
vn -0.226385 0.444204 -0.866852
vn -0.263301 0.827582 -0.495763
vn -0.437331 0.448337 -0.779574
vn -0.372371 0.831536 -0.412173
vn -0.618473 0.454927 -0.640728
vn -0.456053 0.836695 -0.303243
vn -0.757469 0.463520 -0.459772
vn -0.508646 0.842717 -0.176374
vn -0.844841 0.473507 -0.249067
vn -0.526596 0.849164 -0.040229
vn -0.874651 0.484211 -0.022939
vn -0.508648 0.855617 0.095904
vn -0.844848 0.494925 0.203177
vn -0.456040 0.861629 0.222763
vn -0.757470 0.504910 0.413890
vn -0.372366 0.866781 0.331715
vn -0.618477 0.513472 0.594838
vn -0.263296 0.870744 0.415307
vn -0.437328 0.520052 0.733683
vn -0.136286 0.873242 0.467841
vn -0.226366 0.524191 0.820964
vn 0.000000 0.874092 0.485760
vn 0.000000 0.525599 0.850733
vn 0.136286 0.873241 0.467842
vn 0.226366 0.524191 0.820964
vn 0.263296 0.870744 0.415307
vn 0.437328 0.520052 0.733683
vn 0.372365 0.866781 0.331715
vn 0.618477 0.513472 0.594839
vn 0.456037 0.861629 0.222768
vn 0.757473 0.504900 0.413896
vn 0.508656 0.855612 0.095904
vn 0.844859 0.494905 0.203181
s 1
g menu_but group1
usemtl lambert4SG
f 1/2/1 2/5/2 57/57/3 53/6/4
f 2/5/2 3/8/5 61/69/6 57/57/3
f 3/8/5 4/10/7 65/79/8 61/69/6
f 4/10/7 5/12/9 69/126/10 65/79/8
f 5/12/9 6/14/11 73/60/12 69/126/10
f 6/14/11 7/16/13 77/74/14 73/60/12
f 7/16/13 8/18/15 81/89/16 77/74/14
f 8/18/15 9/20/17 85/108/18 81/89/16
f 9/20/17 10/22/19 89/131/20 85/108/18
f 10/22/19 11/24/21 93/143/22 89/131/20
f 11/24/21 12/26/23 97/81/24 93/143/22
f 12/26/23 13/28/25 101/4/26 97/81/24
f 13/28/25 14/30/27 105/62/28 101/4/26
f 14/30/27 15/32/29 109/71/30 105/62/28
f 15/32/29 16/34/31 113/76/32 109/71/30
f 16/34/31 17/36/33 117/105/34 113/76/32
f 17/36/33 18/38/35 121/123/36 117/105/34
f 18/38/35 19/40/37 125/141/38 121/123/36
f 19/40/37 20/42/39 129/136/40 125/141/38
f 20/42/39 21/44/41 133/117/42 129/136/40
f 21/44/41 22/46/43 137/103/44 133/117/42
f 22/46/43 23/48/45 141/98/46 137/103/44
f 23/48/45 24/50/47 145/66/48 141/98/46
f 24/50/47 1/2/1 53/6/4 145/66/48
f 50/56/49 54/61/50 26/7/51 25/3/52
f 54/61/50 58/65/53 27/9/54 26/7/51
f 58/65/53 62/70/55 28/11/56 27/9/54
f 62/70/55 66/75/57 29/13/58 28/11/56
f 66/75/57 70/80/59 30/15/60 29/13/58
f 70/80/59 74/85/61 31/17/62 30/15/60
f 74/85/61 78/90/63 32/19/64 31/17/62
f 78/90/63 82/94/65 33/21/66 32/19/64
f 82/94/65 86/99/67 34/23/68 33/21/66
f 86/99/67 90/104/69 35/25/70 34/23/68
f 90/104/69 94/109/71 36/27/72 35/25/70
f 94/109/71 98/113/73 37/29/74 36/27/72
f 98/113/73 102/118/75 38/31/76 37/29/74
f 102/118/75 106/122/77 39/33/78 38/31/76
f 106/122/77 110/127/79 40/35/80 39/33/78
f 110/127/79 114/132/81 41/37/82 40/35/80
f 114/132/81 118/137/83 42/39/84 41/37/82
f 118/137/83 122/142/85 43/41/86 42/39/84
f 122/142/85 126/138/87 44/43/88 43/41/86
f 126/138/87 130/119/89 45/45/90 44/43/88
f 130/119/89 134/100/91 46/47/92 45/45/90
f 134/100/91 138/86/93 47/49/94 46/47/92
f 138/86/93 142/84/95 48/51/96 47/49/94
f 142/84/95 50/56/49 25/3/52 48/51/96
f 25/3/52 26/7/51 49/1/97
f 26/7/51 27/9/54 49/1/97
f 27/9/54 28/11/56 49/1/97
f 28/11/56 29/13/58 49/1/97
f 29/13/58 30/15/60 49/1/97
f 30/15/60 31/17/62 49/1/97
f 31/17/62 32/19/64 49/1/97
f 32/19/64 33/21/66 49/1/97
f 33/21/66 34/23/68 49/1/97
f 34/23/68 35/25/70 49/1/97
f 35/25/70 36/27/72 49/1/97
f 36/27/72 37/29/74 49/1/97
f 37/29/74 38/31/76 49/1/97
f 38/31/76 39/33/78 49/1/97
f 39/33/78 40/35/80 49/1/97
f 40/35/80 41/37/82 49/1/97
f 41/37/82 42/39/84 49/1/97
f 42/39/84 43/41/86 49/1/97
f 43/41/86 44/43/88 49/1/97
f 44/43/88 45/45/90 49/1/97
f 45/45/90 46/47/92 49/1/97
f 46/47/92 47/49/94 49/1/97
f 47/49/94 48/51/96 49/1/97
f 48/51/96 25/3/52 49/1/97
f 53/6/4 52/53/98 144/52/99 145/66/48
f 52/53/98 51/54/100 143/55/101 144/52/99
f 51/54/100 50/56/49 142/84/95 143/55/101
f 50/56/49 51/54/100 55/59/102 54/61/50
f 51/54/100 52/53/98 56/58/103 55/59/102
f 52/53/98 53/6/4 57/57/3 56/58/103
f 54/61/50 55/59/102 59/64/104 58/65/53
f 55/59/102 56/58/103 60/63/105 59/64/104
f 56/58/103 57/57/3 61/69/6 60/63/105
f 58/65/53 59/64/104 63/68/106 62/70/55
f 59/64/104 60/63/105 64/67/107 63/68/106
f 60/63/105 61/69/6 65/79/8 64/67/107
f 62/70/55 63/68/106 67/73/108 66/75/57
f 63/68/106 64/67/107 68/72/109 67/73/108
f 64/67/107 65/79/8 69/126/10 68/72/109
f 66/75/57 67/73/108 71/78/110 70/80/59
f 67/73/108 68/72/109 72/77/111 71/78/110
f 68/72/109 69/126/10 73/60/12 72/77/111
f 70/80/59 71/78/110 75/83/112 74/85/61
f 71/78/110 72/77/111 76/82/113 75/83/112
f 72/77/111 73/60/12 77/74/14 76/82/113
f 74/85/61 75/83/112 79/88/114 78/90/63
f 75/83/112 76/82/113 80/87/115 79/88/114
f 76/82/113 77/74/14 81/89/16 80/87/115
f 78/90/63 79/88/114 83/93/116 82/94/65
f 79/88/114 80/87/115 84/92/117 83/93/116
f 80/87/115 81/89/16 85/108/18 84/92/117
f 82/94/65 83/93/116 87/97/118 86/99/67
f 83/93/116 84/92/117 88/96/119 87/97/118
f 84/92/117 85/108/18 89/131/20 88/96/119
f 86/99/67 87/97/118 91/102/120 90/104/69
f 87/97/118 88/96/119 92/101/121 91/102/120
f 88/96/119 89/131/20 93/143/22 92/101/121
f 90/104/69 91/102/120 95/107/122 94/109/71
f 91/102/120 92/101/121 96/106/123 95/107/122
f 92/101/121 93/143/22 97/81/24 96/106/123
f 94/109/71 95/107/122 99/112/124 98/113/73
f 95/107/122 96/106/123 100/111/125 99/112/124
f 96/106/123 97/81/24 101/4/26 100/111/125
f 98/113/73 99/112/124 103/116/126 102/118/75
f 99/112/124 100/111/125 104/115/127 103/116/126
f 100/111/125 101/4/26 105/62/28 104/115/127
f 102/118/75 103/116/126 107/121/128 106/122/77
f 103/116/126 104/115/127 108/120/129 107/121/128
f 104/115/127 105/62/28 109/71/30 108/120/129
f 106/122/77 107/121/128 111/125/130 110/127/79
f 107/121/128 108/120/129 112/124/131 111/125/130
f 108/120/129 109/71/30 113/76/32 112/124/131
f 110/127/79 111/125/130 115/130/132 114/132/81
f 111/125/130 112/124/131 116/129/133 115/130/132
f 112/124/131 113/76/32 117/105/34 116/129/133
f 114/132/81 115/130/132 119/135/134 118/137/83
f 115/130/132 116/129/133 120/134/135 119/135/134
f 116/129/133 117/105/34 121/123/36 120/134/135
f 118/137/83 119/135/134 123/140/136 122/142/85
f 119/135/134 120/134/135 124/139/137 123/140/136
f 120/134/135 121/123/36 125/141/38 124/139/137
f 122/142/85 123/140/136 127/145/138 126/138/87
f 123/140/136 124/139/137 128/144/139 127/145/138
f 124/139/137 125/141/38 129/136/40 128/144/139
f 126/138/87 127/145/138 131/128/140 130/119/89
f 127/145/138 128/144/139 132/133/141 131/128/140
f 128/144/139 129/136/40 133/117/42 132/133/141
f 130/119/89 131/128/140 135/110/142 134/100/91
f 131/128/140 132/133/141 136/114/143 135/110/142
f 132/133/141 133/117/42 137/103/44 136/114/143
f 134/100/91 135/110/142 139/91/144 138/86/93
f 135/110/142 136/114/143 140/95/145 139/91/144
f 136/114/143 137/103/44 141/98/46 140/95/145
f 138/86/93 139/91/144 143/55/101 142/84/95
f 139/91/144 140/95/145 144/52/99 143/55/101
f 140/95/145 141/98/46 145/66/48 144/52/99
