# This file uses centimeters as units for non-parametric coordinates.

mtllib status.mtl
g default
v -0.015000 -0.006060 0.159695
v -0.012000 -0.004909 0.159703
v -0.009000 -0.004368 0.159706
v -0.006000 -0.003970 0.159709
v -0.003000 -0.003723 0.159710
v 0.000000 -0.003654 0.159711
v 0.003000 -0.003723 0.159710
v 0.006000 -0.003970 0.159709
v 0.009000 -0.004368 0.159706
v 0.012000 -0.004909 0.159703
v 0.015000 -0.006060 0.159695
v -0.015000 -0.005730 0.156714
v -0.012000 -0.004579 0.156721
v -0.009000 -0.004039 0.156724
v -0.006000 -0.003640 0.156727
v -0.003000 -0.003394 0.156728
v 0.000000 -0.003325 0.156729
v 0.003000 -0.003394 0.156728
v 0.006000 -0.003640 0.156727
v 0.009000 -0.004039 0.156724
v 0.012000 -0.004579 0.156721
v 0.015000 -0.005730 0.156714
v -0.015000 -0.005401 0.153732
v -0.012000 -0.004250 0.153739
v -0.009000 -0.003709 0.153742
v -0.006000 -0.003311 0.153745
v -0.003000 -0.003064 0.153747
v 0.000000 -0.002995 0.153747
v 0.003000 -0.003064 0.153747
v 0.006000 -0.003311 0.153745
v 0.009000 -0.003709 0.153742
v 0.012000 -0.004250 0.153739
v 0.015000 -0.005401 0.153732
v -0.015000 -0.005072 0.150750
v -0.012000 -0.003921 0.150757
v -0.009000 -0.003380 0.150761
v -0.006000 -0.002982 0.150763
v -0.003000 -0.002735 0.150765
v 0.000000 -0.002666 0.150765
v 0.003000 -0.002735 0.150765
v 0.006000 -0.002982 0.150763
v 0.009000 -0.003380 0.150761
v 0.012000 -0.003921 0.150757
v 0.015000 -0.005072 0.150750
v -0.015000 -0.004742 0.147768
v -0.012000 -0.003591 0.147775
v -0.009000 -0.003050 0.147779
v -0.006000 -0.002652 0.147781
v -0.003000 -0.002406 0.147783
v 0.000000 -0.002336 0.147783
v 0.003000 -0.002406 0.147783
v 0.006000 -0.002652 0.147781
v 0.009000 -0.003050 0.147779
v 0.012000 -0.003591 0.147775
v 0.015000 -0.004742 0.147768
v -0.015000 -0.004413 0.144786
v -0.012000 -0.003262 0.144793
v -0.009000 -0.002721 0.144797
v -0.006000 -0.002323 0.144799
v -0.003000 -0.002076 0.144801
v 0.000000 -0.002007 0.144801
v 0.003000 -0.002076 0.144801
v 0.006000 -0.002323 0.144799
v 0.009000 -0.002721 0.144797
v 0.012000 -0.003262 0.144793
v 0.015000 -0.004413 0.144786
v -0.015000 -0.004084 0.141804
v -0.012000 -0.002932 0.141812
v -0.009000 -0.002392 0.141815
v -0.006000 -0.001993 0.141818
v -0.003000 -0.001747 0.141819
v 0.000000 -0.001678 0.141820
v 0.003000 -0.001747 0.141819
v 0.006000 -0.001993 0.141818
v 0.009000 -0.002392 0.141815
v 0.012000 -0.002932 0.141812
v 0.015000 -0.004084 0.141804
v -0.015000 -0.003754 0.138822
v -0.012000 -0.002603 0.138830
v -0.009000 -0.002062 0.138833
v -0.006000 -0.001664 0.138836
v -0.003000 -0.001418 0.138837
v 0.000000 -0.001348 0.138838
v 0.003000 -0.001418 0.138837
v 0.006000 -0.001664 0.138836
v 0.009000 -0.002062 0.138833
v 0.012000 -0.002603 0.138830
v 0.015000 -0.003754 0.138822
v -0.015000 -0.003425 0.135841
v -0.012000 -0.002274 0.135848
v -0.009000 -0.001733 0.135851
v -0.006000 -0.001335 0.135854
v -0.003000 -0.001088 0.135855
v 0.000000 -0.001019 0.135856
v 0.003000 -0.001088 0.135855
v 0.006000 -0.001335 0.135854
v 0.009000 -0.001733 0.135851
v 0.012000 -0.002274 0.135848
v 0.015000 -0.003425 0.135841
v -0.015000 -0.003095 0.132859
v -0.012000 -0.001944 0.132866
v -0.009000 -0.001404 0.132869
v -0.006000 -0.001005 0.132872
v -0.003000 -0.000759 0.132874
v 0.000000 -0.000690 0.132874
v 0.003000 -0.000759 0.132874
v 0.006000 -0.001005 0.132872
v 0.009000 -0.001404 0.132869
v 0.012000 -0.001944 0.132866
v 0.015000 -0.003095 0.132859
v -0.015000 -0.002766 0.129877
v -0.012000 -0.001615 0.129884
v -0.009000 -0.001074 0.129888
v -0.006000 -0.000676 0.129890
v -0.003000 -0.000429 0.129892
v 0.000000 -0.000360 0.129892
v 0.003000 -0.000429 0.129892
v 0.006000 -0.000676 0.129890
v 0.009000 -0.001074 0.129888
v 0.012000 -0.001615 0.129884
v 0.015000 -0.002766 0.129877
vt 0.000000 0.000000
vt 0.100000 0.000000
vt 0.200000 0.000000
vt 0.300000 0.000000
vt 0.400000 0.000000
vt 0.500000 0.000000
vt 0.600000 0.000000
vt 0.700000 0.000000
vt 0.800000 0.000000
vt 0.900000 0.000000
vt 1.000000 0.000000
vt 0.000000 0.100000
vt 0.100000 0.100000
vt 0.200000 0.100000
vt 0.300000 0.100000
vt 0.400000 0.100000
vt 0.500000 0.100000
vt 0.600000 0.100000
vt 0.700000 0.100000
vt 0.800000 0.100000
vt 0.900000 0.100000
vt 1.000000 0.100000
vt 0.000000 0.200000
vt 0.100000 0.200000
vt 0.200000 0.200000
vt 0.300000 0.200000
vt 0.400000 0.200000
vt 0.500000 0.200000
vt 0.600000 0.200000
vt 0.700000 0.200000
vt 0.800000 0.200000
vt 0.900000 0.200000
vt 1.000000 0.200000
vt 0.000000 0.300000
vt 0.100000 0.300000
vt 0.200000 0.300000
vt 0.300000 0.300000
vt 0.400000 0.300000
vt 0.500000 0.300000
vt 0.600000 0.300000
vt 0.700000 0.300000
vt 0.800000 0.300000
vt 0.900000 0.300000
vt 1.000000 0.300000
vt 0.000000 0.400000
vt 0.100000 0.400000
vt 0.200000 0.400000
vt 0.300000 0.400000
vt 0.400000 0.400000
vt 0.500000 0.400000
vt 0.600000 0.400000
vt 0.700000 0.400000
vt 0.800000 0.400000
vt 0.900000 0.400000
vt 1.000000 0.400000
vt 0.000000 0.500000
vt 0.100000 0.500000
vt 0.200000 0.500000
vt 0.300000 0.500000
vt 0.400000 0.500000
vt 0.500000 0.500000
vt 0.600000 0.500000
vt 0.700000 0.500000
vt 0.800000 0.500000
vt 0.900000 0.500000
vt 1.000000 0.500000
vt 0.000000 0.600000
vt 0.100000 0.600000
vt 0.200000 0.600000
vt 0.300000 0.600000
vt 0.400000 0.600000
vt 0.500000 0.600000
vt 0.600000 0.600000
vt 0.700000 0.600000
vt 0.800000 0.600000
vt 0.900000 0.600000
vt 1.000000 0.600000
vt 0.000000 0.700000
vt 0.100000 0.700000
vt 0.200000 0.700000
vt 0.300000 0.700000
vt 0.400000 0.700000
vt 0.500000 0.700000
vt 0.600000 0.700000
vt 0.700000 0.700000
vt 0.800000 0.700000
vt 0.900000 0.700000
vt 1.000000 0.700000
vt 0.000000 0.800000
vt 0.100000 0.800000
vt 0.200000 0.800000
vt 0.300000 0.800000
vt 0.400000 0.800000
vt 0.500000 0.800000
vt 0.600000 0.800000
vt 0.700000 0.800000
vt 0.800000 0.800000
vt 0.900000 0.800000
vt 1.000000 0.800000
vt 0.000000 0.900000
vt 0.100000 0.900000
vt 0.200000 0.900000
vt 0.300000 0.900000
vt 0.400000 0.900000
vt 0.500000 0.900000
vt 0.600000 0.900000
vt 0.700000 0.900000
vt 0.800000 0.900000
vt 0.900000 0.900000
vt 1.000000 0.900000
vt 0.000000 1.000000
vt 0.100000 1.000000
vt 0.200000 1.000000
vt 0.300000 1.000000
vt 0.400000 1.000000
vt 0.500000 1.000000
vt 0.600000 1.000000
vt 0.700000 1.000000
vt 0.800000 1.000000
vt 0.900000 1.000000
vt 1.000000 1.000000
vn -0.356584 0.928615 0.102574
vn -0.271646 0.956579 0.105665
vn -0.356583 0.928616 0.102574
vn -0.270061 0.957023 0.105712
vn -0.154042 0.982091 0.108481
vn -0.153812 0.982127 0.108485
vn -0.106445 0.988308 0.109168
vn -0.106273 0.988326 0.109170
vn -0.052372 0.992590 0.109643
vn -0.052271 0.992596 0.109642
vn -0.000000 0.993954 0.109794
vn 0.000000 0.993955 0.109792
vn 0.052372 0.992590 0.109643
vn 0.052271 0.992596 0.109642
vn 0.106445 0.988308 0.109168
vn 0.106272 0.988326 0.109170
vn 0.154043 0.982091 0.108481
vn 0.153812 0.982127 0.108485
vn 0.271646 0.956579 0.105665
vn 0.270061 0.957022 0.105712
vn 0.356583 0.928616 0.102574
vn 0.356583 0.928616 0.102574
vn -0.356582 0.928616 0.102574
vn -0.270061 0.957022 0.105712
vn -0.153813 0.982127 0.108486
vn -0.106272 0.988326 0.109170
vn -0.052271 0.992596 0.109641
vn -0.000000 0.993955 0.109791
vn 0.052271 0.992596 0.109641
vn 0.106272 0.988326 0.109169
vn 0.153812 0.982127 0.108486
vn 0.270061 0.957022 0.105712
vn 0.356582 0.928616 0.102574
vn -0.356582 0.928616 0.102575
vn -0.270061 0.957022 0.105713
vn -0.153812 0.982127 0.108486
vn -0.106271 0.988326 0.109170
vn -0.052271 0.992596 0.109641
vn -0.000000 0.993955 0.109791
vn 0.052271 0.992596 0.109641
vn 0.106271 0.988326 0.109170
vn 0.153812 0.982127 0.108486
vn 0.270062 0.957022 0.105713
vn 0.356582 0.928616 0.102575
vn -0.356584 0.928615 0.102575
vn -0.270062 0.957022 0.105713
vn -0.153812 0.982127 0.108486
vn -0.106270 0.988326 0.109170
vn -0.052272 0.992596 0.109642
vn 0.000000 0.993955 0.109793
vn 0.052272 0.992596 0.109642
vn 0.106270 0.988326 0.109170
vn 0.153812 0.982127 0.108486
vn 0.270063 0.957022 0.105713
vn 0.356584 0.928615 0.102575
vn -0.356582 0.928616 0.102574
vn -0.270062 0.957022 0.105712
vn -0.153811 0.982127 0.108486
vn -0.106271 0.988326 0.109171
vn -0.052272 0.992596 0.109642
vn -0.000000 0.993955 0.109791
vn 0.052272 0.992596 0.109642
vn 0.106271 0.988326 0.109171
vn 0.153811 0.982127 0.108486
vn 0.270062 0.957022 0.105712
vn 0.356582 0.928616 0.102574
vn -0.356583 0.928616 0.102575
vn -0.270062 0.957022 0.105712
vn -0.153811 0.982127 0.108484
vn -0.106271 0.988326 0.109170
vn -0.052271 0.992596 0.109642
vn -0.000000 0.993955 0.109792
vn 0.052271 0.992596 0.109642
vn 0.106271 0.988326 0.109170
vn 0.153811 0.982127 0.108484
vn 0.270062 0.957022 0.105712
vn 0.356583 0.928616 0.102575
vn -0.356581 0.928617 0.102574
vn -0.270061 0.957023 0.105712
vn -0.153812 0.982127 0.108485
vn -0.106272 0.988326 0.109171
vn -0.052271 0.992596 0.109642
vn -0.000000 0.993954 0.109793
vn 0.052271 0.992596 0.109642
vn 0.106272 0.988326 0.109171
vn 0.153812 0.982127 0.108485
vn 0.270061 0.957023 0.105712
vn 0.356582 0.928616 0.102574
vn -0.356584 0.928615 0.102575
vn -0.270063 0.957022 0.105713
vn -0.153812 0.982127 0.108486
vn -0.106271 0.988326 0.109170
vn -0.052272 0.992596 0.109641
vn 0.000000 0.993955 0.109792
vn 0.052272 0.992596 0.109641
vn 0.106271 0.988326 0.109169
vn 0.153812 0.982127 0.108486
vn 0.270063 0.957022 0.105713
vn 0.356584 0.928615 0.102575
vn -0.356584 0.928615 0.102576
vn -0.270060 0.957023 0.105712
vn -0.153812 0.982127 0.108485
vn -0.106271 0.988326 0.109169
vn -0.052272 0.992596 0.109642
vn -0.000000 0.993955 0.109791
vn 0.052272 0.992596 0.109642
vn 0.106271 0.988326 0.109169
vn 0.153812 0.982127 0.108485
vn 0.270060 0.957023 0.105712
vn 0.356584 0.928615 0.102575
vn -0.356581 0.928616 0.102575
vn -0.268454 0.957469 0.105760
vn -0.153580 0.982163 0.108489
vn -0.106097 0.988345 0.109172
vn -0.052172 0.992601 0.109644
vn -0.000000 0.993955 0.109791
vn 0.052171 0.992601 0.109644
vn 0.106097 0.988345 0.109172
vn 0.153580 0.982163 0.108489
vn 0.268454 0.957469 0.105760
vn 0.356581 0.928616 0.102575
s 1
g status group1
usemtl initialShadingGroup
f 1/1/1 2/2/2 12/12/3
f 12/12/3 2/2/2 13/13/4
f 2/2/2 3/3/5 13/13/4
f 13/13/4 3/3/5 14/14/6
f 3/3/5 4/4/7 14/14/6
f 14/14/6 4/4/7 15/15/8
f 4/4/7 5/5/9 15/15/8
f 15/15/8 5/5/9 16/16/10
f 5/5/9 6/6/11 16/16/10
f 16/16/10 6/6/11 17/17/12
f 7/7/13 18/18/14 6/6/11
f 6/6/11 18/18/14 17/17/12
f 8/8/15 19/19/16 7/7/13
f 7/7/13 19/19/16 18/18/14
f 9/9/17 20/20/18 8/8/15
f 8/8/15 20/20/18 19/19/16
f 10/10/19 21/21/20 9/9/17
f 9/9/17 21/21/20 20/20/18
f 11/11/21 22/22/22 10/10/19
f 10/10/19 22/22/22 21/21/20
f 12/12/3 13/13/4 23/23/23
f 23/23/23 13/13/4 24/24/24
f 13/13/4 14/14/6 24/24/24
f 24/24/24 14/14/6 25/25/25
f 14/14/6 15/15/8 25/25/25
f 25/25/25 15/15/8 26/26/26
f 15/15/8 16/16/10 26/26/26
f 26/26/26 16/16/10 27/27/27
f 16/16/10 17/17/12 27/27/27
f 27/27/27 17/17/12 28/28/28
f 18/18/14 29/29/29 17/17/12
f 17/17/12 29/29/29 28/28/28
f 19/19/16 30/30/30 18/18/14
f 18/18/14 30/30/30 29/29/29
f 20/20/18 31/31/31 19/19/16
f 19/19/16 31/31/31 30/30/30
f 21/21/20 32/32/32 20/20/18
f 20/20/18 32/32/32 31/31/31
f 22/22/22 33/33/33 21/21/20
f 21/21/20 33/33/33 32/32/32
f 23/23/23 24/24/24 34/34/34
f 34/34/34 24/24/24 35/35/35
f 24/24/24 25/25/25 35/35/35
f 35/35/35 25/25/25 36/36/36
f 25/25/25 26/26/26 36/36/36
f 36/36/36 26/26/26 37/37/37
f 26/26/26 27/27/27 37/37/37
f 37/37/37 27/27/27 38/38/38
f 27/27/27 28/28/28 38/38/38
f 38/38/38 28/28/28 39/39/39
f 29/29/29 40/40/40 28/28/28
f 28/28/28 40/40/40 39/39/39
f 30/30/30 41/41/41 29/29/29
f 29/29/29 41/41/41 40/40/40
f 31/31/31 42/42/42 30/30/30
f 30/30/30 42/42/42 41/41/41
f 32/32/32 43/43/43 31/31/31
f 31/31/31 43/43/43 42/42/42
f 33/33/33 44/44/44 32/32/32
f 32/32/32 44/44/44 43/43/43
f 34/34/34 35/35/35 45/45/45
f 45/45/45 35/35/35 46/46/46
f 35/35/35 36/36/36 46/46/46
f 46/46/46 36/36/36 47/47/47
f 36/36/36 37/37/37 47/47/47
f 47/47/47 37/37/37 48/48/48
f 37/37/37 38/38/38 48/48/48
f 48/48/48 38/38/38 49/49/49
f 38/38/38 39/39/39 49/49/49
f 49/49/49 39/39/39 50/50/50
f 40/40/40 51/51/51 39/39/39
f 39/39/39 51/51/51 50/50/50
f 41/41/41 52/52/52 40/40/40
f 40/40/40 52/52/52 51/51/51
f 42/42/42 53/53/53 41/41/41
f 41/41/41 53/53/53 52/52/52
f 43/43/43 54/54/54 42/42/42
f 42/42/42 54/54/54 53/53/53
f 44/44/44 55/55/55 43/43/43
f 43/43/43 55/55/55 54/54/54
f 45/45/45 46/46/46 56/56/56
f 56/56/56 46/46/46 57/57/57
f 46/46/46 47/47/47 57/57/57
f 57/57/57 47/47/47 58/58/58
f 47/47/47 48/48/48 58/58/58
f 58/58/58 48/48/48 59/59/59
f 48/48/48 49/49/49 59/59/59
f 59/59/59 49/49/49 60/60/60
f 49/49/49 50/50/50 60/60/60
f 60/60/60 50/50/50 61/61/61
f 51/51/51 62/62/62 50/50/50
f 50/50/50 62/62/62 61/61/61
f 52/52/52 63/63/63 51/51/51
f 51/51/51 63/63/63 62/62/62
f 53/53/53 64/64/64 52/52/52
f 52/52/52 64/64/64 63/63/63
f 54/54/54 65/65/65 53/53/53
f 53/53/53 65/65/65 64/64/64
f 55/55/55 66/66/66 54/54/54
f 54/54/54 66/66/66 65/65/65
f 56/56/56 57/57/57 67/67/67
f 67/67/67 57/57/57 68/68/68
f 57/57/57 58/58/58 68/68/68
f 68/68/68 58/58/58 69/69/69
f 58/58/58 59/59/59 69/69/69
f 69/69/69 59/59/59 70/70/70
f 59/59/59 60/60/60 70/70/70
f 70/70/70 60/60/60 71/71/71
f 60/60/60 61/61/61 71/71/71
f 71/71/71 61/61/61 72/72/72
f 62/62/62 73/73/73 61/61/61
f 61/61/61 73/73/73 72/72/72
f 63/63/63 74/74/74 62/62/62
f 62/62/62 74/74/74 73/73/73
f 64/64/64 75/75/75 63/63/63
f 63/63/63 75/75/75 74/74/74
f 65/65/65 76/76/76 64/64/64
f 64/64/64 76/76/76 75/75/75
f 66/66/66 77/77/77 65/65/65
f 65/65/65 77/77/77 76/76/76
f 67/67/67 68/68/68 78/78/78
f 78/78/78 68/68/68 79/79/79
f 68/68/68 69/69/69 79/79/79
f 79/79/79 69/69/69 80/80/80
f 69/69/69 70/70/70 80/80/80
f 80/80/80 70/70/70 81/81/81
f 70/70/70 71/71/71 81/81/81
f 81/81/81 71/71/71 82/82/82
f 71/71/71 72/72/72 82/82/82
f 82/82/82 72/72/72 83/83/83
f 73/73/73 84/84/84 72/72/72
f 72/72/72 84/84/84 83/83/83
f 74/74/74 85/85/85 73/73/73
f 73/73/73 85/85/85 84/84/84
f 75/75/75 86/86/86 74/74/74
f 74/74/74 86/86/86 85/85/85
f 76/76/76 87/87/87 75/75/75
f 75/75/75 87/87/87 86/86/86
f 77/77/77 88/88/88 76/76/76
f 76/76/76 88/88/88 87/87/87
f 78/78/78 79/79/79 89/89/89
f 89/89/89 79/79/79 90/90/90
f 79/79/79 80/80/80 90/90/90
f 90/90/90 80/80/80 91/91/91
f 80/80/80 81/81/81 91/91/91
f 91/91/91 81/81/81 92/92/92
f 81/81/81 82/82/82 92/92/92
f 92/92/92 82/82/82 93/93/93
f 82/82/82 83/83/83 93/93/93
f 93/93/93 83/83/83 94/94/94
f 84/84/84 95/95/95 83/83/83
f 83/83/83 95/95/95 94/94/94
f 85/85/85 96/96/96 84/84/84
f 84/84/84 96/96/96 95/95/95
f 86/86/86 97/97/97 85/85/85
f 85/85/85 97/97/97 96/96/96
f 87/87/87 98/98/98 86/86/86
f 86/86/86 98/98/98 97/97/97
f 88/88/88 99/99/99 87/87/87
f 87/87/87 99/99/99 98/98/98
f 89/89/89 90/90/90 100/100/100
f 100/100/100 90/90/90 101/101/101
f 90/90/90 91/91/91 101/101/101
f 101/101/101 91/91/91 102/102/102
f 91/91/91 92/92/92 102/102/102
f 102/102/102 92/92/92 103/103/103
f 92/92/92 93/93/93 103/103/103
f 103/103/103 93/93/93 104/104/104
f 93/93/93 94/94/94 104/104/104
f 104/104/104 94/94/94 105/105/105
f 95/95/95 106/106/106 94/94/94
f 94/94/94 106/106/106 105/105/105
f 96/96/96 107/107/107 95/95/95
f 95/95/95 107/107/107 106/106/106
f 97/97/97 108/108/108 96/96/96
f 96/96/96 108/108/108 107/107/107
f 98/98/98 109/109/109 97/97/97
f 97/97/97 109/109/109 108/108/108
f 99/99/99 110/110/110 98/98/98
f 98/98/98 110/110/110 109/109/109
f 100/100/100 101/101/101 111/111/111
f 111/111/111 101/101/101 112/112/112
f 101/101/101 102/102/102 112/112/112
f 112/112/112 102/102/102 113/113/113
f 102/102/102 103/103/103 113/113/113
f 113/113/113 103/103/103 114/114/114
f 103/103/103 104/104/104 114/114/114
f 114/114/114 104/104/104 115/115/115
f 104/104/104 105/105/105 115/115/115
f 115/115/115 105/105/105 116/116/116
f 106/106/106 117/117/117 105/105/105
f 105/105/105 117/117/117 116/116/116
f 107/107/107 118/118/118 106/106/106
f 106/106/106 118/118/118 117/117/117
f 108/108/108 119/119/119 107/107/107
f 107/107/107 119/119/119 118/118/118
f 109/109/109 120/120/120 108/108/108
f 108/108/108 120/120/120 119/119/119
f 110/110/110 121/121/121 109/109/109
f 109/109/109 121/121/121 120/120/120
