# This file uses centimeters as units for non-parametric coordinates.

mtllib sys_button.mtl
g default
v 0.004820 0.000530 0.086803
v 0.004327 0.000663 0.085618
v 0.003531 0.000774 0.084571
v 0.002497 0.000863 0.083798
v 0.001293 0.000923 0.083326
v 0.000000 0.000936 0.083127
v -0.001292 0.000923 0.083326
v -0.002496 0.000863 0.083798
v -0.003531 0.000774 0.084571
v -0.004327 0.000663 0.085618
v -0.004820 0.000530 0.086803
v -0.004993 0.000397 0.088109
v -0.004820 0.000266 0.089416
v -0.004327 0.000146 0.090602
v -0.003532 0.000051 0.091651
v -0.002497 -0.000037 0.092423
v -0.001293 -0.000059 0.092897
v -0.000000 -0.000101 0.093094
v 0.001293 -0.000059 0.092897
v 0.002497 -0.000037 0.092423
v 0.003532 0.000051 0.091651
v 0.004327 0.000146 0.090602
v 0.004820 0.000266 0.089416
v 0.004993 0.000397 0.088109
v 0.001701 0.003187 0.087945
v 0.001525 0.003248 0.087502
v 0.001245 0.003302 0.087173
v 0.000880 0.003300 0.086863
v 0.000456 0.003356 0.086675
v 0.000000 0.003361 0.086624
v -0.000456 0.003356 0.086675
v -0.000880 0.003300 0.086863
v -0.001245 0.003302 0.087172
v -0.001525 0.003248 0.087502
v -0.001701 0.003187 0.087945
v -0.001760 0.003138 0.088382
v -0.001701 0.003075 0.088879
v -0.001525 0.003058 0.089324
v -0.001244 0.003045 0.089656
v -0.000880 0.003010 0.089903
v -0.000456 0.002987 0.090093
v 0.000000 0.002984 0.090144
v 0.000456 0.002987 0.090093
v 0.000880 0.003010 0.089903
v 0.001244 0.003045 0.089656
v 0.001525 0.003058 0.089324
v 0.001701 0.003075 0.088879
v 0.001760 0.003138 0.088382
v -0.000000 0.003031 0.088376
v 0.003266 0.003405 0.087511
v 0.004367 0.003616 0.087250
v 0.004729 0.003729 0.087215
v 0.004820 0.003587 0.087093
v 0.002928 0.003504 0.086729
v 0.003915 0.003763 0.086198
v 0.004241 0.003853 0.086051
v 0.004327 0.003753 0.085971
v 0.002390 0.003611 0.086004
v 0.003197 0.003882 0.085230
v 0.003463 0.003982 0.084987
v 0.003531 0.003906 0.084925
v 0.001689 0.003665 0.085547
v 0.002261 0.003993 0.084554
v 0.002448 0.004091 0.084194
v 0.002497 0.003998 0.084153
v 0.000875 0.003708 0.085185
v 0.001170 0.004043 0.084081
v 0.001267 0.004141 0.083735
v 0.001293 0.004064 0.083682
v 0.000000 0.003715 0.085068
v 0.000000 0.004048 0.083994
v 0.000000 0.004181 0.083637
v 0.000000 0.004079 0.083482
v -0.000875 0.003708 0.085185
v -0.001170 0.004043 0.084080
v -0.001267 0.004141 0.083735
v -0.001292 0.004064 0.083682
v -0.001689 0.003665 0.085547
v -0.002261 0.003993 0.084553
v -0.002448 0.004091 0.084194
v -0.002496 0.003998 0.084153
v -0.002390 0.003611 0.086004
v -0.003197 0.003882 0.085230
v -0.003463 0.003982 0.084986
v -0.003531 0.003906 0.084925
v -0.002928 0.003504 0.086729
v -0.003915 0.003763 0.086198
v -0.004241 0.003853 0.086051
v -0.004327 0.003753 0.085970
v -0.003266 0.003405 0.087511
v -0.004367 0.003616 0.087249
v -0.004729 0.003729 0.087214
v -0.004820 0.003587 0.087093
v -0.003378 0.003296 0.088390
v -0.004522 0.003492 0.088462
v -0.004897 0.003575 0.088467
v -0.004993 0.003465 0.088461
v -0.003266 0.003214 0.089333
v -0.004367 0.003362 0.089613
v -0.004729 0.003469 0.089660
v -0.004820 0.003322 0.089706
v -0.002928 0.003170 0.090118
v -0.003915 0.003305 0.090732
v -0.004241 0.003375 0.090887
v -0.004327 0.003239 0.090893
v -0.002390 0.003103 0.090844
v -0.003197 0.003226 0.091640
v -0.003463 0.003266 0.091891
v -0.003532 0.003190 0.091944
v -0.001689 0.003074 0.091303
v -0.002261 0.003198 0.092383
v -0.002449 0.003229 0.092688
v -0.002497 0.003102 0.092717
v -0.000875 0.003049 0.091667
v -0.001170 0.003170 0.092796
v -0.001267 0.003200 0.093148
v -0.001293 0.003086 0.093253
v -0.000000 0.003043 0.091782
v -0.000000 0.003132 0.092941
v -0.000000 0.003161 0.093307
v -0.000000 0.003076 0.093391
v 0.000875 0.003049 0.091667
v 0.001170 0.003170 0.092796
v 0.001267 0.003200 0.093148
v 0.001293 0.003086 0.093253
v 0.001689 0.003075 0.091303
v 0.002261 0.003198 0.092383
v 0.002449 0.003227 0.092689
v 0.002497 0.003102 0.092718
v 0.002390 0.003103 0.090844
v 0.003197 0.003226 0.091640
v 0.003463 0.003266 0.091891
v 0.003532 0.003190 0.091944
v 0.002928 0.003170 0.090118
v 0.003915 0.003305 0.090732
v 0.004242 0.003375 0.090887
v 0.004327 0.003239 0.090893
v 0.003264 0.003214 0.089333
v 0.004367 0.003362 0.089613
v 0.004730 0.003469 0.089660
v 0.004820 0.003322 0.089706
v 0.003379 0.003296 0.088390
v 0.004522 0.003492 0.088462
v 0.004897 0.003575 0.088467
v 0.004993 0.003465 0.088461
vt 0.418723 0.568251
vt 0.462324 0.580069
vt 0.432722 0.572098
vt 0.379393 0.557674
vt 0.457773 0.591001
vt 0.458058 0.579010
vt 0.431320 0.575593
vt 0.450529 0.600258
vt 0.429049 0.578623
vt 0.441114 0.607298
vt 0.425980 0.580903
vt 0.430274 0.611719
vt 0.422494 0.582350
vt 0.418736 0.613237
vt 0.418721 0.582875
vt 0.407152 0.611711
vt 0.414950 0.582350
vt 0.396313 0.607295
vt 0.411462 0.580905
vt 0.386934 0.600268
vt 0.408396 0.578622
vt 0.379669 0.590983
vt 0.406126 0.575594
vt 0.375112 0.580068
vt 0.404720 0.572100
vt 0.373570 0.568345
vt 0.404096 0.568349
vt 0.375117 0.556623
vt 0.404724 0.564589
vt 0.379672 0.545708
vt 0.406127 0.561097
vt 0.386938 0.536427
vt 0.408397 0.558073
vt 0.396324 0.529396
vt 0.411466 0.555784
vt 0.407165 0.524984
vt 0.414953 0.554341
vt 0.418722 0.523467
vt 0.418723 0.553822
vt 0.430283 0.524982
vt 0.422496 0.554340
vt 0.441138 0.529398
vt 0.425984 0.555784
vt 0.450501 0.536422
vt 0.429050 0.558072
vt 0.457763 0.545701
vt 0.431317 0.561096
vt 0.462338 0.556635
vt 0.432726 0.564588
vt 0.463873 0.568334
vt 0.433351 0.568348
vt 0.458369 0.568347
vt 0.456982 0.578712
vt 0.454016 0.577872
vt 0.455272 0.568340
vt 0.445130 0.575422
vt 0.453807 0.588867
vt 0.452874 0.588298
vt 0.450297 0.586704
vt 0.418719 0.608707
vt 0.442364 0.582034
vt 0.447207 0.597153
vt 0.446386 0.596389
vt 0.444413 0.594241
vt 0.437979 0.587661
vt 0.459500 0.568343
vt 0.438238 0.602440
vt 0.436788 0.599880
vt 0.446052 0.568343
vt 0.432360 0.591974
vt 0.438746 0.603435
vt 0.428829 0.606277
vt 0.428083 0.603395
vt 0.408378 0.607362
vt 0.425773 0.594693
vt 0.429063 0.607365
vt 0.418717 0.607634
vt 0.418719 0.604642
vt 0.458055 0.557670
vt 0.418715 0.595603
vt 0.377942 0.568337
vt 0.408615 0.606276
vt 0.409362 0.603394
vt 0.453808 0.547818
vt 0.411669 0.594697
vt 0.445125 0.561250
vt 0.399208 0.602439
vt 0.400653 0.599878
vt 0.398699 0.603435
vt 0.405090 0.591976
vt 0.454016 0.558810
vt 0.391054 0.596383
vt 0.393028 0.594240
vt 0.399462 0.587655
vt 0.456979 0.557966
vt 0.384573 0.588303
vt 0.387154 0.586701
vt 0.447207 0.539536
vt 0.395079 0.582041
vt 0.442372 0.554646
vt 0.380465 0.578713
vt 0.383424 0.577872
vt 0.438746 0.533248
vt 0.392324 0.575425
vt 0.383636 0.547816
vt 0.379072 0.568342
vt 0.382183 0.568347
vt 0.390238 0.597149
vt 0.391386 0.568335
vt 0.450289 0.549980
vt 0.380471 0.557971
vt 0.383422 0.558805
vt 0.392331 0.561259
vt 0.452873 0.548385
vt 0.384573 0.548381
vt 0.387166 0.549982
vt 0.429061 0.529327
vt 0.395074 0.554637
vt 0.437977 0.549030
vt 0.391061 0.540305
vt 0.393023 0.542444
vt 0.399473 0.549025
vt 0.390249 0.539535
vt 0.399213 0.534246
vt 0.400663 0.536805
vt 0.418727 0.527977
vt 0.405086 0.544707
vt 0.444422 0.542442
vt 0.408620 0.530412
vt 0.409364 0.533293
vt 0.383635 0.588869
vt 0.411670 0.541987
vt 0.446387 0.540305
vt 0.418723 0.529056
vt 0.418722 0.532046
vt 0.408385 0.529325
vt 0.418725 0.541081
vt 0.432359 0.544699
vt 0.428829 0.530412
vt 0.428087 0.533287
vt 0.398699 0.533255
vt 0.425775 0.541992
vt 0.379390 0.579014
vt 0.438237 0.534243
vt 0.436785 0.536812
vn 0.966594 0.026639 -0.254924
vn 0.864069 0.055109 -0.500347
vn 0.863275 0.086429 -0.497280
vn 0.965169 0.057736 -0.255179
vn 0.707044 0.079689 -0.702665
vn 0.706750 0.104536 -0.699698
vn 0.488687 0.098197 -0.866916
vn 0.488688 0.115908 -0.864725
vn 0.260907 0.108553 -0.959241
vn 0.260558 0.129052 -0.956794
vn 0.000000 0.112341 -0.993670
vn 0.000002 0.138731 -0.990330
vn -0.260878 0.108537 -0.959251
vn -0.260527 0.128964 -0.956814
vn -0.488654 0.098166 -0.866938
vn -0.488654 0.115779 -0.864762
vn -0.706912 0.079689 -0.702798
vn -0.706628 0.104509 -0.699825
vn -0.864028 0.055117 -0.500417
vn -0.863229 0.086441 -0.497356
vn -0.966652 0.026617 -0.254707
vn -0.965227 0.057707 -0.254963
vn -0.999999 0.000121 -0.001164
vn -0.999587 0.028463 0.003895
vn -0.965446 -0.025174 0.259385
vn -0.965006 0.002583 0.262215
vn -0.866550 -0.046707 0.496900
vn -0.866106 -0.019781 0.499468
vn -0.706339 -0.065983 0.704792
vn -0.706088 -0.042346 0.706856
vn -0.496753 -0.085384 0.863682
vn -0.496534 -0.062081 0.865795
vn -0.260386 -0.099206 0.960394
vn -0.258736 -0.071872 0.963271
vn -0.000000 -0.102609 0.994722
vn 0.000000 -0.072395 0.997376
vn 0.260299 -0.099243 0.960414
vn 0.258638 -0.071911 0.963294
vn 0.496750 -0.085449 0.863677
vn 0.496518 -0.062192 0.865795
vn 0.706341 -0.066014 0.704787
vn 0.706105 -0.042414 0.706835
vn 0.866510 -0.046714 0.496969
vn 0.866067 -0.019796 0.499535
vn 0.965440 -0.025176 0.259407
vn 0.965000 0.002596 0.262237
vn 0.999999 0.000140 -0.001346
vn 0.999587 0.028497 0.003718
vn -0.129080 0.979308 0.155868
vn -0.109207 0.974384 0.196593
vn -0.069021 0.981233 0.180049
vn -0.084899 0.985643 0.145947
vn -0.093219 0.970444 0.222595
vn -0.075503 0.979814 0.185106
vn -0.070241 0.967277 0.243807
vn -0.052349 0.978236 0.200785
vn -0.038270 0.964962 0.259584
vn -0.014094 0.975244 0.220680
vn -0.000060 0.965199 0.261518
vn -0.000041 0.976881 0.213786
vn 0.038238 0.964967 0.259569
vn 0.014074 0.975254 0.220641
vn 0.070275 0.967284 0.243770
vn 0.052352 0.978238 0.200771
vn 0.093230 0.970446 0.222581
vn 0.075515 0.979810 0.185120
vn 0.109178 0.974382 0.196620
vn 0.069027 0.981233 0.180050
vn 0.129076 0.979315 0.155828
vn 0.084898 0.985647 0.145917
vn 0.137005 0.984799 0.106772
vn 0.092127 0.989518 0.111205
vn 0.126055 0.991058 0.043762
vn 0.085140 0.994740 0.056945
vn 0.111120 0.993806 0.001481
vn 0.071085 0.997358 0.014973
vn 0.092071 0.995525 -0.021262
vn 0.063527 0.997898 0.012804
vn 0.065220 0.996700 -0.048323
vn 0.053597 0.998561 0.001647
vn 0.040293 0.997256 -0.062099
vn 0.028107 0.999490 -0.015153
vn 0.000000 0.997875 -0.065151
vn 0.000000 0.999778 -0.021072
vn -0.040501 0.997256 -0.061968
vn -0.028354 0.999483 -0.015153
vn -0.065212 0.996702 -0.048301
vn -0.053727 0.998555 0.001438
vn -0.091835 0.995545 -0.021374
vn -0.063390 0.997910 0.012572
vn -0.111139 0.993804 0.001531
vn -0.071106 0.997356 0.015000
vn -0.126007 0.991064 0.043751
vn -0.085179 0.994738 0.056931
vn -0.137002 0.984804 0.106730
vn -0.092130 0.989522 0.111172
vn -0.000002 0.994597 0.103813
vn 0.128836 0.987798 0.087500
vn 0.123304 0.987021 0.102884
vn -0.181514 0.969240 0.166214
vn -0.191519 0.976036 0.103319
vn -0.151278 0.965413 0.212350
vn 0.100699 0.992533 0.068834
vn -0.109087 0.964174 0.241802
vn 0.075575 0.995603 0.055344
vn -0.075943 0.962119 0.261840
vn 0.051571 0.998297 0.027273
vn -0.043785 0.958834 0.280571
vn 0.028719 0.999541 0.009648
vn -0.000054 0.954932 0.296825
vn -0.000013 0.999516 0.031108
vn 0.043747 0.958830 0.280592
vn -0.028696 0.999542 0.009658
vn 0.075957 0.962133 0.261782
vn -0.051514 0.998301 0.027229
vn 0.109073 0.964192 0.241738
vn -0.075514 0.995610 0.055312
vn 0.151230 0.965415 0.212378
vn -0.100734 0.992527 0.068866
vn 0.181504 0.969249 0.166174
vn -0.128932 0.987789 0.087464
vn 0.191567 0.976025 0.103331
vn -0.123167 0.987035 0.102912
vn 0.178728 0.983437 0.030121
vn -0.116816 0.986259 0.116822
vn 0.153863 0.987971 -0.015482
vn -0.105154 0.984435 0.140821
vn 0.112381 0.992765 -0.042298
vn -0.092317 0.981327 0.168744
vn 0.071073 0.994743 -0.073727
vn -0.083409 0.974216 0.209635
vn 0.047466 0.995476 -0.082306
vn -0.035311 0.976322 0.213423
vn 0.000000 0.996500 -0.083599
vn 0.000000 0.981594 0.190982
vn -0.047306 0.995524 -0.081821
vn 0.035453 0.976417 0.212964
vn -0.070552 0.994849 -0.072793
vn 0.083383 0.974218 0.209636
vn -0.112017 0.992824 -0.041871
vn 0.091843 0.981373 0.168738
vn -0.153831 0.987977 -0.015426
vn 0.105160 0.984432 0.140834
vn -0.178648 0.983452 0.030133
vn 0.116785 0.986263 0.116816
s 1
g sys_but group1
usemtl lambert4SG
f 1/2/1 2/5/2 57/57/3 53/6/4
f 2/5/2 3/8/5 61/62/6 57/57/3
f 3/8/5 4/10/7 65/71/8 61/62/6
f 4/10/7 5/12/9 69/76/10 65/71/8
f 5/12/9 6/14/11 73/60/12 69/76/10
f 6/14/11 7/16/13 77/74/14 73/60/12
f 7/16/13 8/18/15 81/89/16 77/74/14
f 8/18/15 9/20/17 85/108/18 81/89/16
f 9/20/17 10/22/19 89/131/20 85/108/18
f 10/22/19 11/24/21 93/143/22 89/131/20
f 11/24/21 12/26/23 97/81/24 93/143/22
f 12/26/23 13/28/25 101/4/26 97/81/24
f 13/28/25 14/30/27 105/105/28 101/4/26
f 14/30/27 15/32/29 109/123/30 105/105/28
f 15/32/29 16/34/31 113/141/32 109/123/30
f 16/34/31 17/36/33 117/136/34 113/141/32
f 17/36/33 18/38/35 121/126/36 117/136/34
f 18/38/35 19/40/37 125/117/38 121/126/36
f 19/40/37 20/42/39 129/103/40 125/117/38
f 20/42/39 21/44/41 133/98/42 129/103/40
f 21/44/41 22/46/43 137/84/44 133/98/42
f 22/46/43 23/48/45 141/79/46 137/84/44
f 23/48/45 24/50/47 145/66/48 141/79/46
f 24/50/47 1/2/1 53/6/4 145/66/48
f 50/56/49 54/61/50 26/7/51 25/3/52
f 54/61/50 58/65/53 27/9/54 26/7/51
f 58/65/53 62/70/55 28/11/56 27/9/54
f 62/70/55 66/75/57 29/13/58 28/11/56
f 66/75/57 70/80/59 30/15/60 29/13/58
f 70/80/59 74/85/61 31/17/62 30/15/60
f 74/85/61 78/90/63 32/19/64 31/17/62
f 78/90/63 82/94/65 33/21/66 32/19/64
f 82/94/65 86/99/67 34/23/68 33/21/66
f 86/99/67 90/104/69 35/25/70 34/23/68
f 90/104/69 94/109/71 36/27/72 35/25/70
f 94/109/71 98/113/73 37/29/74 36/27/72
f 98/113/73 102/118/75 38/31/76 37/29/74
f 102/118/75 106/122/77 39/33/78 38/31/76
f 106/122/77 110/127/79 40/35/80 39/33/78
f 110/127/79 114/132/81 41/37/82 40/35/80
f 114/132/81 118/137/83 42/39/84 41/37/82
f 118/137/83 122/142/85 43/41/86 42/39/84
f 122/142/85 126/138/87 44/43/88 43/41/86
f 126/138/87 130/119/89 45/45/90 44/43/88
f 130/119/89 134/100/91 46/47/92 45/45/90
f 134/100/91 138/86/93 47/49/94 46/47/92
f 138/86/93 142/69/95 48/51/96 47/49/94
f 142/69/95 50/56/49 25/3/52 48/51/96
f 25/3/52 26/7/51 49/1/97
f 26/7/51 27/9/54 49/1/97
f 27/9/54 28/11/56 49/1/97
f 28/11/56 29/13/58 49/1/97
f 29/13/58 30/15/60 49/1/97
f 30/15/60 31/17/62 49/1/97
f 31/17/62 32/19/64 49/1/97
f 32/19/64 33/21/66 49/1/97
f 33/21/66 34/23/68 49/1/97
f 34/23/68 35/25/70 49/1/97
f 35/25/70 36/27/72 49/1/97
f 36/27/72 37/29/74 49/1/97
f 37/29/74 38/31/76 49/1/97
f 38/31/76 39/33/78 49/1/97
f 39/33/78 40/35/80 49/1/97
f 40/35/80 41/37/82 49/1/97
f 41/37/82 42/39/84 49/1/97
f 42/39/84 43/41/86 49/1/97
f 43/41/86 44/43/88 49/1/97
f 44/43/88 45/45/90 49/1/97
f 45/45/90 46/47/92 49/1/97
f 46/47/92 47/49/94 49/1/97
f 47/49/94 48/51/96 49/1/97
f 48/51/96 25/3/52 49/1/97
f 53/6/4 52/53/98 144/52/99 145/66/48
f 52/53/98 51/54/100 143/55/101 144/52/99
f 51/54/100 50/56/49 142/69/95 143/55/101
f 50/56/49 51/54/100 55/59/102 54/61/50
f 51/54/100 52/53/98 56/58/103 55/59/102
f 52/53/98 53/6/4 57/57/3 56/58/103
f 54/61/50 55/59/102 59/64/104 58/65/53
f 55/59/102 56/58/103 60/63/105 59/64/104
f 56/58/103 57/57/3 61/62/6 60/63/105
f 58/65/53 59/64/104 63/68/106 62/70/55
f 59/64/104 60/63/105 64/67/107 63/68/106
f 60/63/105 61/62/6 65/71/8 64/67/107
f 62/70/55 63/68/106 67/73/108 66/75/57
f 63/68/106 64/67/107 68/72/109 67/73/108
f 64/67/107 65/71/8 69/76/10 68/72/109
f 66/75/57 67/73/108 71/78/110 70/80/59
f 67/73/108 68/72/109 72/77/111 71/78/110
f 68/72/109 69/76/10 73/60/12 72/77/111
f 70/80/59 71/78/110 75/83/112 74/85/61
f 71/78/110 72/77/111 76/82/113 75/83/112
f 72/77/111 73/60/12 77/74/14 76/82/113
f 74/85/61 75/83/112 79/88/114 78/90/63
f 75/83/112 76/82/113 80/87/115 79/88/114
f 76/82/113 77/74/14 81/89/16 80/87/115
f 78/90/63 79/88/114 83/93/116 82/94/65
f 79/88/114 80/87/115 84/92/117 83/93/116
f 80/87/115 81/89/16 85/108/18 84/92/117
f 82/94/65 83/93/116 87/97/118 86/99/67
f 83/93/116 84/92/117 88/96/119 87/97/118
f 84/92/117 85/108/18 89/131/20 88/96/119
f 86/99/67 87/97/118 91/102/120 90/104/69
f 87/97/118 88/96/119 92/101/121 91/102/120
f 88/96/119 89/131/20 93/143/22 92/101/121
f 90/104/69 91/102/120 95/107/122 94/109/71
f 91/102/120 92/101/121 96/106/123 95/107/122
f 92/101/121 93/143/22 97/81/24 96/106/123
f 94/109/71 95/107/122 99/112/124 98/113/73
f 95/107/122 96/106/123 100/111/125 99/112/124
f 96/106/123 97/81/24 101/4/26 100/111/125
f 98/113/73 99/112/124 103/116/126 102/118/75
f 99/112/124 100/111/125 104/115/127 103/116/126
f 100/111/125 101/4/26 105/105/28 104/115/127
f 102/118/75 103/116/126 107/121/128 106/122/77
f 103/116/126 104/115/127 108/120/129 107/121/128
f 104/115/127 105/105/28 109/123/30 108/120/129
f 106/122/77 107/121/128 111/125/130 110/127/79
f 107/121/128 108/120/129 112/124/131 111/125/130
f 108/120/129 109/123/30 113/141/32 112/124/131
f 110/127/79 111/125/130 115/130/132 114/132/81
f 111/125/130 112/124/131 116/129/133 115/130/132
f 112/124/131 113/141/32 117/136/34 116/129/133
f 114/132/81 115/130/132 119/135/134 118/137/83
f 115/130/132 116/129/133 120/134/135 119/135/134
f 116/129/133 117/136/34 121/126/36 120/134/135
f 118/137/83 119/135/134 123/140/136 122/142/85
f 119/135/134 120/134/135 124/139/137 123/140/136
f 120/134/135 121/126/36 125/117/38 124/139/137
f 122/142/85 123/140/136 127/145/138 126/138/87
f 123/140/136 124/139/137 128/144/139 127/145/138
f 124/139/137 125/117/38 129/103/40 128/144/139
f 126/138/87 127/145/138 131/128/140 130/119/89
f 127/145/138 128/144/139 132/133/141 131/128/140
f 128/144/139 129/103/40 133/98/42 132/133/141
f 130/119/89 131/128/140 135/110/142 134/100/91
f 131/128/140 132/133/141 136/114/143 135/110/142
f 132/133/141 133/98/42 137/84/44 136/114/143
f 134/100/91 135/110/142 139/91/144 138/86/93
f 135/110/142 136/114/143 140/95/145 139/91/144
f 136/114/143 137/84/44 141/79/46 140/95/145
f 138/86/93 139/91/144 143/55/101 142/69/95
f 139/91/144 140/95/145 144/52/99 143/55/101
f 140/95/145 141/79/46 145/66/48 144/52/99
